<svg width="15" height="15" viewBox="0 0 15 15" fill="none" xmlns="http://www.w3.org/2000/svg">
<path d="M7.5 0C6.95495 0 6.51316 0.441788 6.51316 0.986842V6.51316H0.986842C0.441788 6.51316 0 6.95495 0 7.5C0 8.04505 0.441788 8.48684 0.986842 8.48684H6.51316V14.0132C6.51316 14.5582 6.95495 15 7.5 15C8.04505 15 8.48684 14.5582 8.48684 14.0132V8.48684H14.0132C14.5582 8.48684 15 8.04505 15 7.5C15 6.95495 14.5582 6.51316 14.0132 6.51316H8.48684V0.986842C8.48684 0.441788 8.04505 0 7.5 0V0Z" fill="black"/>
</svg>
